<?xml version="1.0" standalone="no"?><!DOCTYPE svg PUBLIC "-//W3C//DTD SVG 1.1//EN" "http://www.w3.org/Graphics/SVG/1.1/DTD/svg11.dtd"><svg height="1024" node-id="1" sillyvg="true" template-height="1024" template-width="1024" version="1.1" viewBox="0 0 1024 1024" width="1024" xmlns="http://www.w3.org/2000/svg" xmlns:xlink="http://www.w3.org/1999/xlink"><defs node-id="45"></defs><path d="M 0.00 0.00 L 1024.00 0.00 L 1024.00 1024.00 L 0.00 1024.00 Z" fill="#ffffff" fill-opacity="0" fill-rule="nonzero" node-id="47" stroke="none" target-height="1024" target-width="1024" target-x="0" target-y="0"></path><path d="M 314.50 365.00 L 319.10 345.40 L 322.10 335.50 L 325.60 325.80 L 328.40 319.50 L 331.50 313.50 L 335.00 307.80 L 338.80 302.30 L 343.10 297.30 L 347.90 292.60 L 351.70 289.50 L 355.90 286.60 L 360.30 284.00 L 365.20 281.70 L 370.30 280.70 L 375.30 280.20 L 380.30 280.10 L 385.20 280.50 L 391.70 281.60 L 398.20 283.30 L 404.50 285.50 L 416.80 291.20 L 431.50 299.90 L 439.80 305.40 L 435.00 310.00 L 430.80 314.90 L 427.10 320.10 L 423.90 325.60 L 421.20 331.30 L 418.90 337.30 L 417.10 343.40 L 415.70 349.70 L 414.80 356.10 L 414.00 369.00 L 414.20 375.50 L 415.10 384.10 L 416.50 392.60 L 418.40 400.80 L 420.80 407.40 L 423.80 414.00 L 428.50 422.50 L 434.30 430.10 L 437.60 433.50 L 441.20 436.60 L 445.10 439.30 L 449.30 441.50 L 453.90 443.30 L 456.90 444.00 L 459.80 444.30 L 462.60 444.20 L 466.80 443.40 L 470.90 442.00 L 478.70 437.90 L 486.20 433.20 L 487.70 438.50 L 488.70 443.60 L 489.10 448.80 L 489.00 453.90 L 488.50 459.00 L 487.50 464.10 L 484.50 474.00 L 479.10 486.00 L 475.20 492.90 L 468.10 496.20 L 460.90 499.10 L 453.50 501.60 L 446.00 503.70 L 438.40 505.40 L 428.70 507.00 L 419.00 508.00 L 409.30 508.40 L 399.50 508.20 L 389.80 507.40 L 380.10 506.00 L 370.60 504.00 L 361.10 501.40 L 344.20 479.30 L 335.50 468.50 L 326.30 458.10 L 329.70 454.70 L 332.60 451.20 L 335.00 447.60 L 337.00 443.80 L 338.70 439.80 L 341.10 431.60 L 341.70 427.30 L 342.00 421.60 L 341.80 415.80 L 341.00 409.90 L 339.70 404.10 L 337.90 398.50 L 335.70 392.90 L 333.00 387.50 L 330.00 382.30 L 326.60 377.50 L 322.80 372.90 L 318.80 368.70 L 314.50 365.00 Z M 371.30 415.40 L 368.00 417.00 L 365.40 418.90 L 363.30 421.00 L 361.70 423.50 L 360.60 426.20 L 359.90 429.10 L 359.80 435.20 L 360.30 438.30 L 362.40 444.40 L 363.90 447.30 L 366.90 446.40 L 373.10 445.80 L 387.20 446.30 L 391.80 446.00 L 394.80 445.40 L 397.80 444.40 L 400.80 443.00 L 392.20 429.40 L 386.50 422.30 L 383.90 419.90 L 379.00 416.90 L 374.00 415.60 L 371.30 415.40 Z" fill="#fefefe" fill-rule="nonzero" node-id="49" stroke="none" target-height="228.29999" target-width="174.6" target-x="314.5" target-y="280.1"></path><path d="M 431.90 616.00 L 435.60 614.20 L 439.40 612.90 L 443.40 612.20 L 447.30 612.10 L 451.40 612.30 L 455.40 613.00 L 461.40 614.50 L 467.30 616.70 L 478.30 622.00 L 461.80 623.30 L 456.40 624.10 L 449.40 626.20 L 446.00 627.70 L 459.70 636.10 L 445.10 629.40 L 444.90 633.70 L 444.20 637.80 L 443.10 641.70 L 440.90 647.50 L 438.10 653.00 L 434.80 658.30 L 424.20 673.90 L 412.40 666.20 L 413.60 662.60 L 415.20 659.30 L 419.50 653.50 L 425.00 648.50 L 443.10 635.40 L 421.10 624.60 L 431.90 616.00 Z" fill="#fefefe" fill-rule="nonzero" node-id="51" stroke="none" target-height="61.80005" target-width="65.899994" target-x="412.4" target-y="612.1"></path><path d="M 437.60 681.50 L 436.30 679.20 L 435.20 674.80 L 435.20 672.70 L 435.60 669.90 L 436.60 667.20 L 438.00 664.30 L 440.80 660.40 L 457.20 642.20 L 456.20 656.80 L 455.50 662.00 L 454.80 665.50 L 452.70 671.80 L 451.20 674.60 L 449.30 676.90 L 447.10 678.90 L 443.10 680.80 L 437.60 681.50 Z" fill="#fefefe" fill-rule="nonzero" node-id="53" stroke="none" target-height="39.299988" target-width="22" target-x="435.2" target-y="642.2"></path><path d="M 462.70 649.40 L 485.30 670.60 L 481.70 671.50 L 478.30 671.80 L 474.90 671.60 L 471.60 670.80 L 468.70 669.70 L 466.10 668.00 L 464.40 666.50 L 463.10 664.70 L 462.00 662.80 L 461.30 660.50 L 461.00 658.20 L 461.10 655.60 L 461.60 652.70 L 462.70 649.40 Z" fill="#fefefe" fill-rule="nonzero" node-id="55" stroke="none" target-height="22.399963" target-width="24.299988" target-x="461" target-y="649.4"></path><path d="M 336.70 135.80 L 344.20 131.20 L 351.80 127.10 L 359.70 123.50 L 367.80 120.40 L 376.00 117.80 L 384.30 115.70 L 392.80 114.10 L 401.40 112.90 L 410.00 112.20 L 418.70 112.00 L 427.30 112.20 L 436.00 112.80 L 444.70 113.90 L 453.20 115.40 L 461.70 117.30 L 470.20 119.60 L 478.50 122.20 L 486.60 125.30 L 494.50 128.70 L 502.20 132.50 L 511.20 137.60 L 519.90 143.00 L 528.30 148.90 L 536.50 155.10 L 544.30 161.70 L 551.90 168.70 L 559.10 175.90 L 566.00 183.50 L 572.60 191.30 L 578.80 199.50 L 584.70 208.00 L 590.20 216.60 L 595.40 225.50 L 600.10 234.60 L 604.50 243.90 L 608.50 253.40 L 612.10 263.00 L 615.20 272.70 L 617.90 282.60 L 620.20 292.70 L 623.30 309.20 L 626.10 325.90 L 629.00 348.30 L 629.90 359.50 L 630.30 370.80 L 630.20 382.00 L 629.60 393.20 L 626.80 404.70 L 622.70 415.40 L 619.20 422.20 L 615.30 428.70 L 610.90 435.00 L 601.10 446.90 L 595.60 452.50 L 587.10 460.50 L 578.20 468.00 L 559.80 481.90 L 567.60 492.20 L 575.10 502.80 L 579.90 510.10 L 588.50 525.00 L 592.30 532.80 L 595.70 540.70 L 601.70 558.20 L 604.20 567.60 L 606.20 577.10 L 609.10 596.30 L 613.70 649.70 L 616.60 673.80 L 618.40 683.40 L 622.80 703.00 L 625.70 712.90 L 629.10 722.80 L 632.90 732.40 L 637.30 741.80 L 642.20 751.00 L 647.60 759.80 L 653.50 768.30 L 660.00 776.40 L 665.20 782.20 L 670.60 787.70 L 676.40 792.90 L 682.50 797.90 L 688.00 801.90 L 693.80 805.40 L 699.90 808.40 L 706.20 810.90 L 712.70 812.90 L 719.30 814.40 L 726.10 815.40 L 732.80 815.80 L 739.60 815.70 L 746.40 815.20 L 753.10 814.00 L 759.70 812.40 L 766.80 810.20 L 780.50 804.90 L 790.60 800.30 L 830.10 780.30 L 840.20 775.60 L 841.40 780.00 L 842.20 784.30 L 842.60 788.70 L 842.60 793.10 L 841.90 798.90 L 840.70 804.60 L 838.90 810.20 L 836.60 815.70 L 834.00 821.00 L 831.10 826.10 L 819.10 844.70 L 840.30 845.10 L 831.30 850.60 L 822.10 855.70 L 812.70 860.30 L 803.00 864.50 L 793.20 868.20 L 783.20 871.40 L 773.00 874.20 L 762.70 876.50 L 752.40 878.30 L 742.00 879.70 L 731.50 880.70 L 717.40 881.40 L 713.90 881.20 L 705.50 879.40 L 686.00 871.80 L 681.10 870.30 L 674.30 868.90 L 670.90 868.60 L 658.30 868.80 L 607.90 870.60 L 595.40 870.80 L 590.70 889.00 L 588.70 895.00 L 579.10 896.50 L 569.60 897.40 L 560.00 897.70 L 550.40 897.40 L 540.80 896.60 L 531.30 895.40 L 521.90 893.70 L 512.50 891.50 L 503.20 889.00 L 494.00 886.10 L 476.00 879.30 L 462.10 878.90 L 448.20 879.20 L 387.50 882.00 L 382.60 881.80 L 377.70 881.20 L 370.50 879.80 L 342.00 871.50 L 334.80 869.80 L 325.00 868.60 L 312.80 868.20 L 305.80 867.40 L 298.90 865.90 L 292.10 863.80 L 285.50 861.30 L 279.00 858.30 L 266.70 851.20 L 260.80 847.20 L 287.30 827.80 L 293.60 822.60 L 299.70 817.20 L 303.40 813.20 L 306.80 809.00 L 310.00 804.50 L 313.20 798.30 L 315.90 792.00 L 318.30 785.60 L 320.20 779.20 L 322.20 770.40 L 323.70 761.60 L 324.70 752.60 L 325.50 734.50 L 324.90 711.60 L 322.60 670.90 L 302.60 641.80 L 297.80 634.30 L 293.50 626.60 L 291.00 621.40 L 287.10 610.50 L 285.70 604.90 L 285.00 599.00 L 284.70 593.00 L 287.10 587.30 L 289.80 582.00 L 293.00 577.00 L 298.50 569.90 L 304.40 563.10 L 323.20 543.20 L 328.90 536.30 L 332.40 531.40 L 335.50 526.20 L 338.30 520.70 L 325.00 516.10 L 311.90 510.90 L 299.00 505.20 L 286.40 499.20 L 261.40 486.20 L 224.50 465.90 L 221.40 463.60 L 218.80 461.00 L 216.60 458.10 L 214.90 455.00 L 213.60 451.60 L 212.70 448.10 L 211.80 440.80 L 211.90 437.10 L 212.60 431.50 L 226.40 369.00 L 233.20 340.40 L 240.40 312.00 L 248.10 283.80 L 256.40 255.70 L 264.80 232.80 L 269.60 221.40 L 274.80 210.30 L 280.50 199.40 L 286.60 188.80 L 291.60 181.10 L 297.00 173.60 L 302.70 166.50 L 308.70 159.60 L 315.00 153.10 L 321.80 146.90 L 329.00 141.20 L 336.70 135.80 Z M 352.00 140.30 L 344.70 144.30 L 337.90 148.80 L 331.50 153.50 L 325.50 158.70 L 319.80 164.20 L 314.40 170.00 L 309.30 176.10 L 304.50 182.50 L 298.60 191.30 L 293.10 200.50 L 288.00 210.00 L 283.30 219.80 L 274.80 239.70 L 263.90 269.70 L 258.50 281.70 L 253.50 297.30 L 235.20 373.30 L 229.70 399.70 L 226.50 421.10 L 236.80 402.20 L 241.60 392.60 L 268.50 333.90 L 275.60 319.40 L 283.30 305.30 L 288.80 296.00 L 294.60 287.00 L 300.90 278.20 L 309.90 266.70 L 314.80 261.00 L 323.70 252.20 L 331.40 246.20 L 335.60 243.80 L 339.90 241.70 L 344.40 240.10 L 349.10 239.00 L 354.00 238.40 L 359.20 238.50 L 368.30 239.10 L 377.20 240.30 L 385.90 242.00 L 394.60 244.20 L 403.00 246.90 L 411.30 250.00 L 419.50 253.60 L 427.40 257.70 L 435.20 262.10 L 442.70 267.00 L 450.00 272.10 L 457.10 277.70 L 470.40 289.70 L 482.60 302.90 L 493.70 317.00 L 503.30 331.90 L 510.00 343.90 L 516.90 359.60 L 531.00 398.20 L 534.90 407.70 L 544.70 402.50 L 560.90 392.90 L 573.20 384.30 L 579.00 379.60 L 584.40 374.60 L 589.50 369.20 L 596.20 360.40 L 601.70 350.50 L 603.80 342.60 L 605.50 334.70 L 606.60 326.90 L 607.40 319.10 L 607.70 311.30 L 607.50 301.50 L 606.70 291.80 L 605.30 282.20 L 603.30 272.70 L 600.80 263.30 L 597.70 254.00 L 594.10 244.90 L 590.00 235.90 L 585.40 227.20 L 580.40 218.70 L 575.00 210.50 L 569.20 202.50 L 562.90 194.70 L 556.30 187.40 L 549.40 180.30 L 542.20 173.60 L 534.60 167.20 L 526.80 161.30 L 518.80 155.80 L 510.50 150.70 L 498.90 144.90 L 487.00 139.40 L 479.00 136.00 L 470.80 133.20 L 462.50 130.70 L 456.20 129.20 L 449.80 128.10 L 443.40 127.40 L 436.80 127.10 L 415.00 126.70 L 404.10 126.90 L 393.20 127.60 L 386.00 128.50 L 378.90 129.80 L 371.90 131.60 L 361.80 135.20 L 352.00 140.30 Z M 306.10 289.20 L 290.00 313.50 L 285.20 322.00 L 282.40 327.80 L 280.10 333.80 L 278.20 339.80 L 277.10 344.50 L 276.50 349.20 L 276.20 354.10 L 276.50 368.80 L 277.10 378.50 L 278.30 388.40 L 280.00 398.20 L 282.20 407.90 L 284.90 417.50 L 288.10 426.90 L 291.90 436.00 L 296.30 444.90 L 299.90 451.30 L 303.90 457.50 L 308.10 463.40 L 312.70 469.00 L 317.60 474.40 L 322.80 479.40 L 328.30 484.10 L 334.20 488.40 L 340.40 492.30 L 346.90 495.70 L 353.80 498.80 L 361.10 501.40 L 370.60 504.00 L 380.10 506.00 L 389.80 507.40 L 399.50 508.20 L 409.30 508.40 L 419.00 508.00 L 428.70 507.00 L 438.40 505.40 L 446.00 503.70 L 453.50 501.60 L 460.90 499.10 L 468.10 496.20 L 480.60 490.60 L 485.80 488.00 L 490.90 484.90 L 495.60 481.50 L 500.10 477.70 L 504.10 473.60 L 507.90 469.10 L 511.10 464.30 L 513.80 459.20 L 515.60 455.20 L 518.00 446.80 L 518.70 442.30 L 519.30 434.10 L 519.40 425.90 L 519.10 417.80 L 518.30 409.70 L 517.10 401.70 L 513.60 385.80 L 511.30 378.00 L 507.60 367.70 L 503.50 357.70 L 498.80 347.80 L 493.60 338.20 L 488.10 328.90 L 482.10 319.90 L 486.80 330.50 L 491.10 341.80 L 493.70 349.40 L 497.70 365.00 L 499.00 372.90 L 499.80 380.80 L 500.00 388.60 L 499.80 394.50 L 499.20 400.30 L 498.20 406.00 L 496.70 411.70 L 494.90 417.20 L 492.50 422.60 L 489.60 427.90 L 486.20 433.20 L 474.90 440.10 L 470.90 442.00 L 466.80 443.40 L 462.60 444.20 L 459.80 444.30 L 456.90 444.00 L 453.90 443.30 L 449.30 441.50 L 445.10 439.30 L 441.20 436.60 L 437.60 433.50 L 434.30 430.10 L 431.30 426.40 L 426.00 418.30 L 423.80 414.00 L 420.80 407.40 L 418.40 400.80 L 416.50 392.60 L 415.10 384.10 L 414.20 375.50 L 414.00 369.00 L 414.80 356.10 L 415.70 349.70 L 417.10 343.40 L 418.90 337.30 L 421.20 331.30 L 423.90 325.60 L 427.10 320.10 L 430.80 314.90 L 435.00 310.00 L 439.80 305.40 L 445.00 304.70 L 450.00 304.50 L 454.90 304.90 L 459.70 305.80 L 464.40 307.20 L 469.00 308.90 L 473.60 311.10 L 478.10 313.70 L 467.10 301.10 L 455.00 289.50 L 448.60 284.10 L 441.90 279.00 L 435.00 274.30 L 427.80 269.90 L 420.50 265.90 L 413.00 262.30 L 405.30 259.10 L 397.40 256.40 L 389.40 254.10 L 381.30 252.30 L 373.00 251.10 L 364.60 250.30 L 359.70 250.30 L 355.10 250.70 L 350.70 251.60 L 346.40 252.90 L 341.00 255.40 L 335.80 258.40 L 330.80 261.90 L 321.70 270.20 L 317.40 274.80 L 311.50 282.00 L 306.10 289.20 Z M 517.60 570.80 L 537.70 575.30 L 548.40 578.90 L 556.40 583.10 L 560.00 585.70 L 563.50 588.70 L 566.70 592.30 L 514.10 587.50 L 521.40 599.70 L 524.70 606.00 L 529.10 617.00 L 531.40 626.30 L 522.10 610.10 L 513.10 593.70 L 492.40 598.00 L 495.90 603.20 L 499.00 608.40 L 501.60 613.80 L 503.70 619.30 L 506.00 626.80 L 507.80 634.40 L 509.00 642.30 L 510.10 658.10 L 509.80 678.30 L 506.50 726.90 L 499.20 790.00 L 498.40 802.70 L 498.20 815.30 L 498.60 821.00 L 499.50 826.50 L 500.90 831.90 L 502.80 837.10 L 505.10 842.20 L 507.80 847.00 L 510.80 851.60 L 514.30 855.90 L 518.10 860.00 L 522.10 863.70 L 526.40 867.10 L 531.00 870.30 L 535.80 873.00 L 540.80 875.30 L 546.00 877.20 L 551.30 878.70 L 556.70 879.70 L 562.20 880.20 L 567.80 880.20 L 573.60 879.70 L 590.40 863.90 L 596.30 859.10 L 602.50 854.60 L 609.00 850.40 L 560.30 846.40 L 550.60 845.20 L 548.40 844.50 L 544.50 841.90 L 541.40 838.20 L 539.20 833.60 L 538.20 829.00 L 538.30 826.70 L 538.70 824.60 L 539.60 822.70 L 540.80 821.00 L 542.60 819.70 L 545.00 818.60 L 554.80 819.60 L 564.60 821.10 L 584.00 824.90 L 603.30 829.30 L 610.30 831.30 L 617.20 833.70 L 637.90 841.50 L 644.90 843.60 L 649.60 844.60 L 654.50 845.10 L 665.10 845.60 L 682.20 845.80 L 689.80 846.70 L 693.50 847.70 L 696.10 849.60 L 698.10 852.00 L 699.80 854.70 L 706.90 869.60 L 726.60 868.20 L 736.40 867.10 L 746.10 865.40 L 755.80 863.20 L 771.40 858.60 L 777.20 856.20 L 782.90 853.50 L 788.30 850.30 L 793.60 846.80 L 803.40 838.90 L 812.20 829.80 L 819.90 819.80 L 826.40 808.90 L 829.20 803.30 L 833.70 791.60 L 815.70 799.80 L 789.20 813.20 L 780.20 817.40 L 771.10 821.20 L 761.80 824.40 L 755.50 826.10 L 749.10 827.40 L 742.40 828.30 L 736.50 828.80 L 730.60 828.90 L 724.90 828.60 L 719.10 827.80 L 707.90 825.10 L 697.10 820.90 L 690.10 817.40 L 683.40 813.50 L 677.00 809.10 L 670.80 804.30 L 665.10 799.10 L 659.60 793.70 L 652.50 785.70 L 645.90 777.40 L 639.80 768.70 L 634.20 759.70 L 629.10 750.40 L 624.50 740.90 L 620.30 731.20 L 616.60 721.20 L 613.40 711.00 L 610.70 700.80 L 608.40 690.40 L 606.60 679.90 L 605.30 669.30 L 604.40 658.70 L 604.00 648.10 L 604.00 625.30 L 603.50 613.20 L 602.50 601.10 L 600.80 589.00 L 598.60 577.00 L 595.80 565.20 L 592.50 553.50 L 588.50 542.00 L 583.40 531.40 L 579.50 526.30 L 575.40 523.10 L 566.30 526.50 L 557.20 530.30 L 551.30 533.30 L 545.60 536.50 L 540.20 540.00 L 535.10 544.00 L 530.50 548.40 L 526.40 553.20 L 523.60 557.10 L 521.30 561.30 L 519.20 565.90 L 517.60 570.80 Z M 449.40 566.30 L 444.60 567.80 L 435.00 569.60 L 423.90 570.00 L 417.50 569.50 L 411.10 568.70 L 401.50 566.90 L 373.20 559.70 L 376.30 563.70 L 383.20 570.60 L 387.00 573.60 L 392.40 577.20 L 398.10 580.20 L 404.20 582.60 L 410.40 584.50 L 416.80 585.80 L 423.30 586.60 L 429.80 586.70 L 436.30 586.30 L 442.80 585.30 L 449.10 583.70 L 455.20 581.50 L 461.10 578.80 L 465.30 576.30 L 473.10 570.40 L 476.70 566.90 L 474.80 570.60 L 472.70 573.90 L 470.40 576.80 L 467.80 579.20 L 464.00 582.10 L 459.90 584.40 L 455.50 586.30 L 446.10 589.00 L 441.10 589.90 L 411.30 593.60 L 418.00 596.10 L 431.70 600.10 L 452.60 604.40 L 473.70 607.90 L 477.80 601.80 L 482.40 596.00 L 502.00 573.90 L 504.30 570.00 L 507.90 561.70 L 510.10 555.20 L 515.50 535.40 L 504.20 540.10 L 460.60 561.50 L 449.40 566.30 Z M 294.00 603.80 L 297.00 611.50 L 300.50 618.90 L 304.60 626.10 L 309.10 633.00 L 314.00 639.60 L 319.40 646.00 L 325.10 652.10 L 331.00 657.90 L 343.80 668.60 L 357.10 678.00 L 362.50 678.60 L 367.60 679.60 L 372.50 681.00 L 377.30 682.90 L 383.40 686.00 L 389.30 689.70 L 395.00 694.00 L 399.90 673.10 L 404.20 659.60 L 406.90 653.00 L 409.90 646.60 L 413.40 640.40 L 417.40 634.40 L 408.70 620.10 L 431.90 616.00 L 400.80 599.60 L 369.30 584.00 L 362.00 586.80 L 355.00 590.00 L 330.70 552.20 L 311.70 570.30 L 307.10 575.10 L 302.90 580.20 L 300.40 583.70 L 296.60 591.20 L 295.20 595.20 L 294.40 599.30 L 294.00 603.80 Z M 431.90 616.00 L 421.10 624.60 L 443.10 635.40 L 425.00 648.50 L 419.50 653.50 L 415.20 659.30 L 413.60 662.60 L 412.40 666.20 L 424.20 673.90 L 434.80 658.30 L 438.10 653.00 L 440.90 647.50 L 443.10 641.70 L 444.20 637.80 L 444.90 633.70 L 445.10 629.40 L 459.70 636.10 L 446.00 627.70 L 449.40 626.20 L 456.40 624.10 L 461.80 623.30 L 478.30 622.00 L 467.30 616.70 L 461.40 614.50 L 455.40 613.00 L 451.40 612.30 L 447.30 612.10 L 443.40 612.20 L 439.40 612.90 L 435.60 614.20 L 431.90 616.00 Z M 477.90 643.90 L 477.30 646.90 L 477.20 649.10 L 477.60 650.70 L 478.30 651.80 L 479.40 652.70 L 481.00 653.20 L 483.20 653.30 L 486.40 652.80 L 487.00 649.80 L 487.00 647.60 L 486.60 646.00 L 485.90 644.90 L 484.80 644.00 L 483.20 643.60 L 481.00 643.50 L 477.90 643.90 Z M 437.60 681.50 L 440.50 681.30 L 443.10 680.80 L 445.20 680.00 L 447.10 678.90 L 449.30 676.90 L 451.20 674.60 L 452.70 671.80 L 454.80 665.50 L 455.50 662.00 L 456.20 656.80 L 457.20 642.20 L 440.80 660.40 L 438.00 664.30 L 436.60 667.20 L 435.60 669.90 L 435.20 672.70 L 435.20 674.80 L 436.30 679.20 L 437.60 681.50 Z M 462.70 649.40 L 461.60 652.70 L 461.10 655.60 L 461.00 658.20 L 461.30 660.50 L 462.00 662.80 L 464.40 666.50 L 466.10 668.00 L 468.70 669.70 L 471.60 670.80 L 474.90 671.60 L 478.30 671.80 L 481.70 671.50 L 485.30 670.60 L 462.70 649.40 Z M 333.50 679.80 L 333.20 691.70 L 333.50 703.70 L 335.30 739.90 L 335.40 751.90 L 335.00 759.80 L 334.30 767.70 L 333.00 775.50 L 330.20 787.10 L 328.20 792.80 L 323.50 803.50 L 321.00 808.20 L 314.80 816.80 L 307.60 824.70 L 301.60 830.10 L 282.80 845.30 L 292.20 849.00 L 304.30 851.70 L 334.10 855.50 L 341.50 856.90 L 346.30 858.90 L 361.90 866.50 L 365.50 868.00 L 372.40 869.90 L 375.90 870.30 L 379.30 870.10 L 382.50 869.30 L 384.80 868.30 L 387.10 866.90 L 389.40 865.00 L 391.70 862.40 L 427.80 864.70 L 445.90 865.30 L 464.10 865.20 L 460.60 861.10 L 457.50 856.60 L 454.70 852.00 L 451.10 844.70 L 441.10 822.40 L 435.80 813.10 L 432.70 808.90 L 429.30 804.90 L 425.30 801.30 L 414.90 793.60 L 409.40 788.90 L 404.20 783.90 L 394.60 773.10 L 390.10 767.40 L 377.50 749.70 L 365.70 731.40 L 361.80 724.90 L 347.80 697.50 L 343.80 691.10 L 340.70 687.10 L 337.30 683.40 L 333.50 679.80 Z" fill="#1e1d50" fill-rule="nonzero" node-id="57" stroke="none" target-height="785.7" target-width="630.8" target-x="211.8" target-y="112"></path><path d="M 688.00 209.30 L 692.70 205.30 L 697.60 201.90 L 702.70 198.80 L 708.10 196.10 L 713.70 193.80 L 719.50 192.00 L 725.40 190.50 L 731.40 189.40 L 743.70 188.40 L 756.00 188.80 L 768.20 190.80 L 780.10 194.20 L 791.30 199.00 L 801.80 205.20 L 806.60 208.80 L 811.20 212.70 L 815.40 217.00 L 819.30 221.60 L 822.80 226.50 L 825.80 231.70 L 828.50 237.20 L 830.80 243.10 L 833.00 250.70 L 834.80 258.40 L 836.20 266.20 L 837.30 274.10 L 837.90 282.10 L 838.10 290.00 L 837.90 297.90 L 837.20 305.90 L 836.10 313.80 L 834.60 321.60 L 832.60 329.20 L 830.20 336.80 L 827.30 344.10 L 823.90 351.30 L 820.10 358.20 L 813.00 369.00 L 809.80 372.50 L 806.40 375.50 L 802.60 378.10 L 798.60 380.40 L 794.30 382.30 L 787.70 384.60 L 780.80 386.30 L 767.00 388.60 L 766.20 395.00 L 764.60 415.10 L 763.10 423.70 L 761.90 427.90 L 760.30 431.90 L 758.20 435.70 L 755.50 439.30 L 750.30 440.30 L 745.00 440.80 L 739.70 440.90 L 731.80 440.30 L 723.80 439.20 L 715.90 437.60 L 692.40 432.20 L 690.20 430.20 L 688.40 428.20 L 686.00 423.80 L 685.00 420.60 L 684.40 417.20 L 684.30 413.70 L 684.60 408.30 L 685.50 402.80 L 689.00 386.30 L 689.60 381.40 L 678.80 371.70 L 673.70 366.40 L 669.10 360.80 L 663.90 352.80 L 661.70 348.60 L 660.00 344.10 L 658.70 339.50 L 656.50 325.90 L 655.20 308.20 L 655.10 299.20 L 655.50 290.20 L 656.30 281.30 L 657.60 272.40 L 659.40 263.60 L 661.70 255.00 L 663.80 248.70 L 666.20 242.50 L 672.10 230.60 L 675.50 225.00 L 679.30 219.50 L 683.40 214.30 L 688.00 209.30 Z M 719.30 207.00 L 714.10 209.00 L 709.30 211.60 L 704.80 214.60 L 700.60 218.00 L 696.60 221.70 L 693.00 225.80 L 689.70 230.20 L 686.70 234.70 L 681.70 244.50 L 677.90 254.70 L 675.40 263.60 L 673.40 272.50 L 671.80 281.70 L 670.80 290.90 L 670.40 300.10 L 670.50 309.30 L 671.00 316.20 L 673.20 329.90 L 675.90 340.40 L 677.40 343.80 L 679.30 346.90 L 682.70 351.30 L 686.70 355.30 L 699.30 366.80 L 703.00 371.00 L 702.80 379.10 L 699.90 411.10 L 699.70 419.10 L 702.60 419.60 L 708.30 419.50 L 712.50 418.60 L 725.00 414.90 L 732.70 425.20 L 747.10 424.30 L 753.50 394.70 L 756.60 385.10 L 758.60 380.50 L 764.00 377.70 L 781.20 370.40 L 786.80 367.70 L 792.00 364.50 L 795.10 362.10 L 798.10 359.20 L 800.70 355.80 L 804.70 349.60 L 808.30 343.30 L 811.50 336.70 L 814.20 329.80 L 816.60 322.80 L 818.40 315.70 L 819.90 308.50 L 820.90 301.20 L 821.50 293.80 L 821.70 286.40 L 821.40 279.10 L 820.80 271.70 L 819.70 264.40 L 818.10 257.20 L 816.20 250.20 L 813.80 243.20 L 811.40 238.10 L 808.50 233.30 L 805.30 228.80 L 801.70 224.80 L 797.70 221.00 L 793.40 217.60 L 788.90 214.50 L 784.10 211.80 L 773.90 207.40 L 763.10 204.50 L 755.70 203.30 L 748.30 202.80 L 740.90 202.80 L 735.30 203.30 L 729.80 204.20 L 719.30 207.00 Z" fill="#1e1d50" fill-rule="nonzero" node-id="59" stroke="none" target-height="252.5" target-width="183" target-x="655.1" target-y="188.4"></path><path d="M 694.80 316.50 L 698.10 314.70 L 701.50 313.50 L 704.90 312.90 L 708.40 312.90 L 711.90 313.30 L 715.30 314.20 L 718.50 315.50 L 721.60 317.20 L 724.50 319.30 L 727.10 321.70 L 729.30 324.30 L 731.30 327.20 L 732.80 330.30 L 733.80 333.50 L 734.30 336.90 L 734.20 340.30 L 733.60 343.90 L 732.20 347.50 L 729.40 349.60 L 726.50 351.20 L 723.40 352.20 L 717.00 353.10 L 713.60 353.00 L 708.60 352.30 L 703.70 350.90 L 698.90 349.10 L 694.60 346.90 L 690.60 344.20 L 688.00 340.70 L 686.90 338.00 L 686.30 335.10 L 686.20 332.00 L 686.60 329.00 L 687.40 326.00 L 688.70 323.20 L 690.30 320.60 L 692.40 318.30 L 694.80 316.50 Z" fill="#1e1d50" fill-rule="nonzero" node-id="61" stroke="none" target-height="40.200012" target-width="48.099976" target-x="686.2" target-y="312.9"></path><path d="M 750.90 327.10 L 753.80 325.40 L 756.90 324.20 L 760.20 323.30 L 767.10 322.70 L 770.60 323.00 L 774.00 323.70 L 777.20 324.80 L 780.20 326.20 L 783.00 328.10 L 785.50 330.20 L 787.60 332.80 L 789.20 335.70 L 790.30 338.90 L 790.90 342.60 L 790.60 345.90 L 790.00 348.70 L 788.90 351.20 L 787.60 353.40 L 783.80 357.10 L 779.00 359.80 L 775.50 360.90 L 771.70 361.70 L 767.70 362.10 L 763.60 362.00 L 755.80 360.70 L 752.10 359.50 L 748.80 358.00 L 743.90 354.50 L 742.40 352.80 L 740.50 349.10 L 740.00 346.40 L 740.00 343.70 L 740.50 340.90 L 742.80 335.50 L 744.50 333.00 L 746.40 330.70 L 750.90 327.10 Z" fill="#1e1d50" fill-rule="nonzero" node-id="63" stroke="none" target-height="39.399994" target-width="50.900024" target-x="740" target-y="322.7"></path><path d="M 301.30 426.80 L 299.20 420.30 L 296.70 408.70 L 295.90 399.30 L 296.00 394.60 L 296.50 390.10 L 297.50 385.70 L 298.90 381.50 L 300.80 377.50 L 303.30 373.80 L 305.40 371.30 L 308.00 369.00 L 311.00 366.90 L 314.50 365.00 L 318.80 368.70 L 322.80 372.90 L 326.60 377.50 L 330.00 382.30 L 333.00 387.50 L 335.70 392.90 L 337.90 398.50 L 339.70 404.10 L 341.00 409.90 L 341.80 415.80 L 342.00 421.60 L 341.70 427.30 L 341.10 431.60 L 338.70 439.80 L 335.00 447.60 L 332.60 451.20 L 329.70 454.70 L 326.30 458.10 L 311.80 443.80 L 307.50 438.70 L 305.00 435.00 L 302.90 431.10 L 301.30 426.80 Z" fill="#1e1d50" fill-rule="nonzero" node-id="65" stroke="none" target-height="93.100006" target-width="46.100006" target-x="295.9" target-y="365"></path><path d="M 371.30 415.40 L 374.00 415.60 L 379.00 416.90 L 383.90 419.90 L 386.50 422.30 L 392.20 429.40 L 400.80 443.00 L 397.80 444.40 L 394.80 445.40 L 391.80 446.00 L 387.20 446.30 L 373.10 445.80 L 366.90 446.40 L 363.90 447.30 L 362.40 444.40 L 360.30 438.30 L 359.80 435.20 L 359.90 429.10 L 360.60 426.20 L 361.70 423.50 L 363.30 421.00 L 365.40 418.90 L 368.00 417.00 L 371.30 415.40 Z" fill="#1e1d50" fill-rule="nonzero" node-id="67" stroke="none" target-height="31.899994" target-width="41" target-x="359.8" target-y="415.4"></path><path d="M 668.40 466.60 L 713.00 462.60 L 757.70 459.10 L 787.50 457.10 L 847.20 454.00 L 849.10 485.90 L 850.50 501.80 L 860.60 597.30 L 844.50 600.70 L 811.90 606.60 L 787.40 610.20 L 713.60 619.60 L 689.10 623.10 L 664.60 627.20 L 653.50 628.80 L 648.00 628.90 L 646.30 628.50 L 643.80 626.90 L 642.90 625.60 L 642.20 623.80 L 641.90 621.40 L 636.90 603.20 L 635.00 594.00 L 632.70 580.00 L 631.00 566.00 L 627.00 527.70 L 623.00 497.10 L 622.30 483.50 L 622.30 476.70 L 625.70 474.60 L 629.20 473.00 L 632.80 471.70 L 638.50 470.30 L 644.50 469.40 L 662.60 467.50 L 668.40 466.60 Z M 652.20 516.10 L 655.60 511.90 L 663.20 504.40 L 667.30 501.10 L 673.00 497.00 L 679.00 493.40 L 685.40 490.30 L 698.50 485.00 L 705.40 482.90 L 696.50 482.70 L 687.00 483.90 L 677.80 486.50 L 673.30 488.30 L 669.10 490.40 L 665.30 493.00 L 661.70 495.90 L 658.70 499.10 L 656.10 502.80 L 654.60 505.70 L 653.40 508.90 L 652.60 512.40 L 652.20 516.10 Z M 712.50 482.60 L 712.30 485.00 L 712.60 487.40 L 714.50 492.20 L 717.60 496.50 L 723.20 501.80 L 725.10 500.80 L 726.40 499.60 L 727.10 498.00 L 727.30 494.30 L 726.00 490.10 L 723.50 486.30 L 720.20 483.40 L 718.30 482.40 L 716.40 481.90 L 714.50 482.00 L 712.50 482.60 Z M 729.90 489.40 L 734.70 490.60 L 739.20 492.20 L 743.60 494.20 L 747.90 496.50 L 751.90 499.20 L 755.70 502.20 L 759.10 505.60 L 762.30 509.20 L 765.00 513.10 L 767.40 517.30 L 769.40 521.70 L 770.90 526.40 L 769.50 530.90 L 765.80 539.50 L 762.50 545.70 L 751.90 564.10 L 748.70 570.40 L 745.90 576.90 L 758.50 577.20 L 761.60 591.40 L 763.40 588.10 L 764.50 584.90 L 765.00 581.70 L 764.90 578.40 L 764.50 575.10 L 763.60 571.90 L 761.80 567.00 L 759.60 562.40 L 772.40 551.50 L 773.80 528.60 L 773.50 517.10 L 771.00 512.00 L 768.00 507.10 L 754.50 488.80 L 766.70 486.90 L 765.80 480.00 L 747.80 484.40 L 729.90 489.40 Z M 773.90 490.40 L 789.00 485.80 L 797.90 493.90 L 799.90 497.00 L 801.20 500.00 L 802.00 502.90 L 802.30 505.80 L 802.20 508.80 L 801.60 511.80 L 800.30 516.10 L 796.00 524.80 L 788.70 537.10 L 792.50 533.40 L 795.80 529.40 L 798.60 525.20 L 801.00 520.70 L 802.80 515.90 L 804.20 511.00 L 804.90 506.00 L 805.20 500.80 L 804.80 495.50 L 829.80 494.00 L 823.60 521.40 L 825.40 517.40 L 828.10 509.00 L 830.50 496.10 L 832.00 483.00 L 819.30 491.50 L 817.10 492.60 L 812.50 493.90 L 810.20 493.90 L 807.80 493.40 L 805.30 492.30 L 795.80 482.40 L 784.40 485.40 L 780.70 486.70 L 773.90 490.40 Z M 665.00 506.90 L 664.40 512.20 L 675.40 517.30 L 681.40 520.80 L 685.10 524.40 L 686.40 526.50 L 687.20 529.00 L 688.20 535.30 L 688.20 538.40 L 687.70 541.30 L 686.90 544.00 L 684.20 549.40 L 676.20 560.80 L 673.90 564.80 L 671.70 570.40 L 671.20 573.40 L 682.20 578.60 L 679.40 587.90 L 678.50 594.20 L 678.60 597.20 L 679.20 600.20 L 680.30 603.20 L 682.20 606.30 L 690.50 599.60 L 698.60 592.50 L 698.60 589.90 L 698.20 587.50 L 697.40 585.50 L 695.70 582.50 L 693.30 579.90 L 690.60 577.60 L 678.50 569.00 L 675.90 566.80 L 686.30 557.60 L 689.40 554.30 L 692.70 549.30 L 693.80 546.60 L 694.40 543.80 L 694.60 540.70 L 694.00 531.00 L 692.30 525.80 L 690.50 522.60 L 688.20 519.70 L 685.50 517.10 L 679.20 512.70 L 675.70 510.90 L 670.30 508.70 L 665.00 506.90 Z M 709.20 519.60 L 725.80 526.90 L 728.10 546.80 L 730.20 544.60 L 731.70 542.50 L 733.30 538.60 L 733.60 535.90 L 733.30 533.30 L 732.60 530.60 L 730.80 526.80 L 728.30 522.80 L 720.10 511.30 L 718.00 507.50 L 709.20 519.60 Z M 810.80 527.10 L 809.20 527.40 L 806.60 528.90 L 805.20 530.60 L 804.20 532.70 L 803.80 535.00 L 804.20 538.70 L 805.70 541.10 L 808.20 542.60 L 809.90 542.80 L 811.50 542.60 L 814.10 541.10 L 815.50 539.30 L 816.40 537.20 L 816.90 534.90 L 816.50 531.20 L 815.00 528.80 L 812.60 527.40 L 810.80 527.10 Z M 823.50 550.60 L 821.70 551.20 L 820.00 552.40 L 818.60 554.00 L 817.50 555.90 L 816.80 558.00 L 816.70 561.40 L 817.60 563.50 L 819.70 564.90 L 821.30 565.20 L 823.80 564.30 L 824.90 563.50 L 826.30 561.80 L 827.40 559.90 L 828.10 557.80 L 828.30 554.40 L 827.30 552.20 L 825.20 550.90 L 823.50 550.60 Z M 713.50 551.40 L 727.80 573.40 L 709.80 564.20 L 709.10 567.00 L 709.00 569.30 L 709.20 571.40 L 709.90 573.40 L 710.90 575.00 L 713.80 577.50 L 717.50 578.70 L 719.40 578.80 L 723.60 577.90 L 725.50 576.90 L 729.30 573.50 L 730.90 571.20 L 731.80 569.10 L 732.10 567.30 L 731.90 565.40 L 731.20 563.70 L 730.10 562.00 L 728.00 559.70 L 722.20 555.70 L 713.50 551.40 Z M 790.80 555.10 L 790.20 558.60 L 786.00 572.20 L 785.40 575.60 L 787.80 576.80 L 789.90 577.20 L 791.70 577.10 L 793.50 576.40 L 795.00 575.40 L 796.40 573.90 L 798.40 570.20 L 799.50 565.90 L 799.30 561.70 L 798.80 559.70 L 797.90 558.00 L 796.70 556.60 L 795.20 555.70 L 793.20 555.10 L 790.80 555.10 Z M 810.50 573.70 L 810.30 575.60 L 810.60 577.20 L 811.30 578.50 L 813.70 580.70 L 818.00 582.20 L 820.90 582.50 L 823.80 582.30 L 826.50 581.60 L 828.10 580.90 L 830.50 578.70 L 831.30 577.40 L 831.60 575.80 L 831.50 573.80 L 827.10 572.10 L 821.00 571.40 L 817.30 571.70 L 813.70 572.50 L 810.50 573.70 Z" fill="#1e1d50" fill-rule="nonzero" node-id="69" stroke="none" target-height="174.90002" target-width="238.29999" target-x="622.3" target-y="454"></path><path d="M 389.50 604.90 L 392.10 605.00 L 393.70 605.40 L 394.60 606.20 L 395.20 607.20 L 395.40 608.40 L 395.10 610.00 L 394.10 612.40 L 392.30 615.10 L 390.10 617.70 L 387.50 620.00 L 384.70 621.90 L 382.00 623.20 L 380.10 623.70 L 378.50 623.70 L 377.10 623.30 L 376.60 621.30 L 376.40 619.40 L 377.40 615.60 L 379.50 612.10 L 381.70 609.70 L 384.20 607.70 L 386.90 606.10 L 389.50 604.90 Z" fill="#1e1d50" fill-rule="nonzero" node-id="73" stroke="none" target-height="18.799988" target-width="19" target-x="376.4" target-y="604.9"></path><path d="M 694.80 648.30 L 702.20 647.20 L 709.90 646.70 L 715.10 646.80 L 725.20 648.00 L 730.10 649.30 L 734.70 651.20 L 739.00 653.60 L 742.00 655.70 L 744.80 658.20 L 747.30 661.20 L 749.60 664.60 L 752.60 670.80 L 755.10 677.20 L 757.10 684.00 L 758.50 690.90 L 759.30 697.90 L 759.60 704.90 L 759.20 711.90 L 758.20 718.80 L 756.60 725.60 L 755.00 730.60 L 753.00 735.40 L 750.60 740.00 L 747.80 744.50 L 747.30 763.60 L 746.80 770.00 L 742.10 772.70 L 737.30 774.90 L 727.20 778.20 L 716.60 780.10 L 708.60 780.80 L 700.70 781.00 L 695.50 757.10 L 683.40 756.10 L 679.70 755.20 L 677.30 754.30 L 675.20 753.00 L 673.30 751.50 L 671.80 749.60 L 670.70 747.20 L 664.80 728.50 L 662.70 720.00 L 661.00 711.30 L 659.90 699.70 L 659.90 693.90 L 660.30 688.20 L 661.20 682.80 L 662.50 677.60 L 663.90 673.80 L 667.70 666.80 L 670.10 663.50 L 672.80 660.60 L 676.00 657.90 L 679.60 655.40 L 683.80 653.20 L 687.40 660.30 L 678.90 663.60 L 675.90 666.80 L 673.40 670.10 L 671.40 673.60 L 669.70 677.20 L 668.10 682.30 L 667.00 687.60 L 666.50 693.00 L 666.40 698.60 L 667.40 709.70 L 671.30 729.50 L 672.50 732.70 L 674.00 735.50 L 678.10 740.50 L 684.50 745.70 L 696.90 754.50 L 701.70 759.00 L 703.70 761.60 L 705.40 764.40 L 706.60 767.60 L 707.50 771.30 L 729.40 762.50 L 742.40 767.50 L 742.80 762.90 L 742.80 758.60 L 742.40 754.30 L 741.40 750.20 L 740.00 746.40 L 738.20 742.80 L 735.90 739.60 L 733.10 736.80 L 729.80 734.40 L 724.10 731.80 L 717.00 730.40 L 719.30 710.00 L 741.10 709.10 L 742.10 718.50 L 742.80 723.10 L 745.00 730.60 L 748.00 736.20 L 749.70 727.20 L 751.10 717.70 L 751.70 711.20 L 751.90 698.50 L 751.30 692.10 L 750.20 686.00 L 748.50 680.00 L 746.80 675.70 L 744.70 671.60 L 742.20 667.60 L 739.10 663.70 L 736.50 661.00 L 733.60 658.90 L 730.40 657.30 L 723.60 655.30 L 714.60 654.40 L 697.10 653.60 L 695.80 653.20 L 694.30 652.00 L 694.20 650.00 L 694.80 648.30 Z" fill="#1e1d50" fill-rule="nonzero" node-id="75" stroke="none" target-height="134.29999" target-width="99.69995" target-x="659.9" target-y="646.7"></path><path d="M 516.40 799.30 L 518.40 783.20 L 525.50 735.30 L 527.40 719.20 L 528.80 703.20 L 529.20 692.40 L 529.20 681.60 L 528.70 670.70 L 530.90 678.70 L 532.70 686.70 L 534.10 694.80 L 535.00 703.00 L 535.60 719.50 L 534.60 736.00 L 533.10 747.00 L 530.90 757.80 L 528.10 768.50 L 524.80 779.10 L 520.90 789.30 L 516.40 799.30 Z" fill="#1e1d50" fill-rule="nonzero" node-id="77" stroke="none" target-height="128.59998" target-width="19.199951" target-x="516.4" target-y="670.7"></path><path d="M 680.10 731.50 L 679.10 728.40 L 678.80 725.80 L 679.00 723.60 L 679.70 721.40 L 680.80 719.60 L 682.40 717.90 L 686.30 715.40 L 692.40 713.60 L 696.40 713.10 L 700.30 713.20 L 703.80 713.60 L 708.70 736.20 L 695.50 739.40 L 691.90 739.80 L 688.70 739.80 L 686.60 739.40 L 684.80 738.70 L 683.20 737.60 L 681.90 736.20 L 680.80 734.20 L 680.10 731.50 Z" fill="#1e1d50" fill-rule="nonzero" node-id="79" stroke="none" target-height="26.700012" target-width="29.900024" target-x="678.8" target-y="713.1"></path><path d="M 353.90 735.50 L 365.90 767.00 L 378.80 798.20 L 388.40 818.60 L 393.70 828.60 L 388.70 824.30 L 384.20 819.60 L 379.90 814.70 L 376.00 809.50 L 369.30 798.40 L 363.70 786.60 L 360.80 778.30 L 358.30 769.90 L 356.40 761.30 L 355.10 752.60 L 354.20 744.00 L 353.90 735.50 Z" fill="#1e1d50" fill-rule="nonzero" node-id="81" stroke="none" target-height="93.099976" target-width="39.80002" target-x="353.9" target-y="735.5"></path><path d="M 362.40 150.20 L 369.40 146.60 L 376.50 143.60 L 383.70 141.00 L 391.00 139.00 L 405.80 136.00 L 420.90 134.60 L 431.00 134.40 L 441.10 134.80 L 451.30 135.80 L 461.40 137.30 L 471.40 139.20 L 491.30 144.30 L 510.50 150.70 L 518.80 155.80 L 526.80 161.30 L 534.60 167.20 L 542.20 173.60 L 549.40 180.30 L 556.30 187.40 L 562.90 194.70 L 569.20 202.50 L 575.00 210.50 L 580.40 218.70 L 585.40 227.20 L 590.00 235.90 L 594.10 244.90 L 597.70 254.00 L 600.80 263.30 L 603.30 272.70 L 605.30 282.20 L 606.70 291.80 L 607.50 301.50 L 607.70 311.30 L 607.40 319.10 L 606.60 326.90 L 605.40 334.70 L 603.80 342.60 L 601.70 350.50 L 599.10 355.60 L 593.00 364.90 L 589.50 369.20 L 584.40 374.60 L 579.00 379.60 L 567.10 388.80 L 554.50 396.90 L 534.90 407.70 L 531.00 398.20 L 516.90 359.60 L 512.90 350.10 L 506.80 337.90 L 498.70 324.40 L 488.30 309.90 L 476.70 296.20 L 463.90 283.60 L 457.10 277.70 L 450.00 272.10 L 442.70 267.00 L 435.20 262.10 L 427.40 257.70 L 419.50 253.60 L 411.30 250.00 L 403.00 246.90 L 394.60 244.20 L 385.90 242.00 L 377.20 240.30 L 368.30 239.10 L 359.20 238.50 L 354.00 238.40 L 349.10 239.00 L 344.40 240.10 L 339.90 241.70 L 335.60 243.80 L 331.40 246.20 L 323.70 252.20 L 314.80 261.00 L 309.90 266.70 L 300.90 278.20 L 294.60 287.00 L 288.80 296.00 L 283.30 305.30 L 275.60 319.40 L 268.50 333.90 L 241.60 392.60 L 236.80 402.20 L 226.50 421.10 L 229.70 399.70 L 235.20 373.30 L 253.50 297.30 L 258.50 281.70 L 261.00 275.60 L 270.70 255.50 L 282.90 232.00 L 293.80 213.80 L 299.70 205.10 L 306.00 196.60 L 312.70 188.60 L 323.40 177.20 L 335.20 166.90 L 341.50 162.20 L 348.10 157.90 L 355.10 153.80 L 362.40 150.20 Z" fill="#44517b" fill-rule="nonzero" node-id="83" stroke="none" target-height="286.7" target-width="381.2" target-x="226.5" target-y="134.4"></path><path d="M 652.20 516.10 L 652.60 512.40 L 653.40 508.90 L 654.60 505.70 L 656.10 502.80 L 658.70 499.10 L 661.70 495.90 L 665.30 493.00 L 669.10 490.40 L 673.30 488.30 L 677.80 486.50 L 687.00 483.90 L 696.50 482.70 L 705.40 482.90 L 698.50 485.00 L 685.40 490.30 L 679.00 493.40 L 673.00 497.00 L 667.30 501.10 L 663.20 504.40 L 655.60 511.90 L 652.20 516.10 Z" fill="#44517b" fill-rule="nonzero" node-id="85" stroke="none" target-height="33.399963" target-width="53.200012" target-x="652.2" target-y="482.7"></path><path d="M 712.50 482.60 L 714.50 482.00 L 716.40 481.90 L 718.30 482.40 L 721.90 484.70 L 723.50 486.30 L 726.00 490.10 L 727.30 494.30 L 727.40 496.30 L 727.10 498.00 L 726.40 499.60 L 725.10 500.80 L 723.20 501.80 L 720.40 499.40 L 715.90 494.40 L 713.30 489.90 L 712.60 487.40 L 712.30 485.00 L 712.50 482.60 Z" fill="#44517b" fill-rule="nonzero" node-id="87" stroke="none" target-height="19.899994" target-width="15.100037" target-x="712.3" target-y="481.9"></path><path d="M 729.90 489.40 L 747.80 484.40 L 765.80 480.00 L 766.70 486.90 L 754.50 488.80 L 768.00 507.10 L 771.00 512.00 L 773.50 517.10 L 773.80 528.60 L 772.40 551.50 L 759.60 562.40 L 761.80 567.00 L 763.60 571.90 L 764.50 575.10 L 765.00 578.40 L 765.00 581.70 L 764.50 584.90 L 763.40 588.10 L 761.60 591.40 L 758.50 577.20 L 745.90 576.90 L 748.70 570.40 L 751.90 564.10 L 762.50 545.70 L 765.80 539.50 L 769.50 530.90 L 770.90 526.40 L 769.40 521.70 L 767.40 517.30 L 765.00 513.10 L 762.30 509.20 L 759.10 505.60 L 755.70 502.20 L 751.90 499.20 L 747.90 496.50 L 743.60 494.20 L 739.20 492.20 L 734.70 490.60 L 729.90 489.40 Z" fill="#44517b" fill-rule="nonzero" node-id="89" stroke="none" target-height="111.400024" target-width="43.899963" target-x="729.9" target-y="480"></path><path d="M 665.00 506.90 L 670.30 508.70 L 675.70 510.90 L 682.40 514.80 L 685.50 517.10 L 688.20 519.70 L 690.50 522.60 L 692.30 525.80 L 693.30 528.30 L 694.30 534.00 L 694.20 537.30 L 694.60 540.70 L 694.40 543.80 L 693.80 546.60 L 692.70 549.30 L 689.40 554.30 L 686.30 557.60 L 675.90 566.80 L 678.50 569.00 L 690.60 577.60 L 693.30 579.90 L 695.70 582.50 L 697.40 585.40 L 698.20 587.50 L 698.60 592.50 L 690.50 599.60 L 682.20 606.30 L 680.30 603.20 L 679.20 600.20 L 678.60 597.20 L 678.50 594.20 L 679.40 587.90 L 682.20 578.60 L 671.20 573.40 L 671.70 570.40 L 673.90 564.80 L 676.20 560.80 L 684.20 549.40 L 686.90 544.00 L 687.70 541.30 L 688.20 538.40 L 688.20 535.30 L 687.20 529.00 L 686.40 526.50 L 685.10 524.40 L 681.40 520.80 L 675.40 517.30 L 664.40 512.20 L 665.00 506.90 Z" fill="#44517b" fill-rule="nonzero" node-id="91" stroke="none" target-height="99.399994" target-width="34.19995" target-x="664.4" target-y="506.9"></path><path d="M 709.20 519.60 L 718.00 507.50 L 720.10 511.30 L 728.30 522.80 L 730.80 526.80 L 732.60 530.60 L 733.30 533.30 L 733.60 535.90 L 733.30 538.60 L 732.70 540.50 L 730.20 544.60 L 728.10 546.80 L 725.80 526.90 L 709.20 519.60 Z" fill="#44517b" fill-rule="nonzero" node-id="93" stroke="none" target-height="39.299988" target-width="24.399963" target-x="709.2" target-y="507.5"></path><path d="M 517.60 570.80 L 519.20 565.90 L 521.30 561.30 L 523.60 557.10 L 526.40 553.20 L 530.50 548.40 L 535.10 544.00 L 540.20 540.00 L 545.60 536.50 L 551.30 533.30 L 557.20 530.30 L 566.30 526.50 L 575.40 523.10 L 579.50 526.30 L 583.40 531.40 L 588.50 542.00 L 592.50 553.50 L 595.80 565.20 L 598.60 577.00 L 600.80 589.00 L 602.50 601.10 L 603.50 613.20 L 604.00 625.30 L 604.00 648.10 L 604.40 658.70 L 605.30 669.30 L 606.60 679.90 L 608.40 690.40 L 610.70 700.80 L 613.40 711.00 L 616.60 721.20 L 620.30 731.20 L 624.50 740.90 L 629.10 750.40 L 634.20 759.70 L 639.80 768.70 L 645.90 777.40 L 652.50 785.70 L 659.60 793.70 L 665.10 799.10 L 670.80 804.30 L 677.00 809.10 L 683.40 813.50 L 690.10 817.40 L 697.10 820.90 L 707.90 825.10 L 719.10 827.80 L 724.90 828.60 L 730.60 828.90 L 736.50 828.80 L 742.40 828.30 L 749.00 827.40 L 755.50 826.10 L 761.80 824.40 L 771.10 821.20 L 780.20 817.40 L 789.20 813.20 L 815.70 799.80 L 833.70 791.60 L 829.20 803.30 L 826.40 808.90 L 819.90 819.80 L 816.20 824.90 L 807.90 834.50 L 803.40 838.90 L 793.60 846.80 L 788.30 850.30 L 782.90 853.50 L 777.20 856.20 L 771.40 858.60 L 765.30 860.50 L 755.80 863.20 L 746.10 865.40 L 736.40 867.10 L 726.60 868.30 L 706.90 869.60 L 699.80 854.70 L 698.10 852.00 L 696.10 849.60 L 693.50 847.70 L 689.80 846.70 L 682.20 845.80 L 665.10 845.60 L 654.50 845.10 L 649.60 844.60 L 644.90 843.60 L 637.90 841.50 L 617.20 833.70 L 610.30 831.30 L 603.30 829.30 L 584.00 824.90 L 564.60 821.10 L 554.80 819.70 L 545.00 818.60 L 542.60 819.70 L 540.80 821.00 L 539.60 822.70 L 538.70 824.60 L 538.30 826.70 L 538.20 829.00 L 539.10 833.60 L 541.40 838.20 L 544.50 841.90 L 546.40 843.40 L 548.40 844.50 L 550.60 845.20 L 560.30 846.40 L 609.00 850.40 L 602.50 854.60 L 596.30 859.10 L 590.40 863.90 L 573.60 879.70 L 567.80 880.20 L 562.20 880.20 L 556.70 879.70 L 551.30 878.70 L 546.00 877.20 L 540.80 875.30 L 535.80 873.00 L 531.00 870.30 L 526.40 867.10 L 522.10 863.70 L 518.10 860.00 L 514.30 855.90 L 510.80 851.60 L 507.80 847.00 L 505.10 842.20 L 502.80 837.10 L 500.90 831.90 L 499.50 826.50 L 498.60 821.00 L 498.20 815.30 L 498.40 802.70 L 499.20 790.00 L 500.50 777.40 L 505.20 739.60 L 506.50 726.90 L 509.80 678.30 L 510.10 658.10 L 509.00 642.30 L 507.80 634.40 L 506.00 626.80 L 503.70 619.30 L 501.60 613.80 L 499.00 608.50 L 495.90 603.20 L 492.40 598.00 L 513.10 593.70 L 522.10 610.10 L 531.40 626.30 L 529.10 617.00 L 524.70 606.00 L 521.40 599.70 L 514.10 587.50 L 566.70 592.30 L 563.50 588.70 L 560.00 585.70 L 556.40 583.10 L 548.40 578.90 L 537.70 575.30 L 517.60 570.80 Z M 516.40 799.30 L 520.90 789.30 L 524.80 779.10 L 528.10 768.50 L 530.90 757.80 L 533.10 747.00 L 534.60 736.00 L 535.60 719.50 L 535.00 703.00 L 534.10 694.80 L 532.70 686.70 L 530.90 678.70 L 528.70 670.70 L 529.20 681.60 L 529.20 692.40 L 528.80 703.20 L 527.40 719.20 L 525.50 735.30 L 518.40 783.20 L 516.40 799.30 Z" fill="#44517b" fill-rule="nonzero" node-id="95" stroke="none" target-height="357.10004" target-width="341.30002" target-x="492.4" target-y="523.1"></path><path d="M 810.80 527.10 L 812.60 527.40 L 815.00 528.80 L 816.50 531.20 L 816.80 532.60 L 816.90 534.90 L 816.40 537.20 L 815.50 539.30 L 814.10 541.10 L 811.50 542.60 L 809.90 542.80 L 806.80 542.00 L 804.80 540.00 L 803.80 537.30 L 803.80 535.00 L 804.20 532.70 L 805.20 530.60 L 806.60 528.90 L 807.80 528.00 L 810.80 527.10 Z" fill="#44517b" fill-rule="nonzero" node-id="97" stroke="none" target-height="15.700012" target-width="13.100037" target-x="803.8" target-y="527.1"></path><path d="M 449.40 566.30 L 460.60 561.50 L 504.20 540.10 L 515.50 535.40 L 510.10 555.20 L 507.90 561.70 L 504.30 570.00 L 502.00 573.90 L 482.40 596.00 L 477.80 601.80 L 473.70 607.90 L 452.60 604.40 L 431.70 600.10 L 418.00 596.10 L 411.30 593.60 L 441.10 589.90 L 446.10 589.00 L 455.50 586.30 L 459.90 584.40 L 464.00 582.10 L 467.80 579.20 L 470.40 576.80 L 472.70 573.90 L 474.80 570.60 L 476.70 566.90 L 473.10 570.40 L 469.30 573.50 L 465.30 576.30 L 461.10 578.80 L 455.20 581.50 L 449.10 583.70 L 442.80 585.30 L 436.30 586.30 L 429.80 586.70 L 423.30 586.50 L 416.80 585.80 L 410.40 584.50 L 404.20 582.60 L 398.10 580.20 L 392.40 577.20 L 387.00 573.60 L 383.20 570.60 L 376.30 563.70 L 373.20 559.70 L 401.50 566.90 L 411.10 568.70 L 417.50 569.50 L 423.90 570.00 L 435.00 569.60 L 444.60 567.80 L 449.40 566.30 Z" fill="#44517b" fill-rule="nonzero" node-id="99" stroke="none" target-height="72.5" target-width="142.29999" target-x="373.2" target-y="535.4"></path><path d="M 294.00 603.80 L 294.40 599.30 L 295.20 595.10 L 296.60 591.20 L 300.40 583.70 L 302.90 580.20 L 307.10 575.10 L 311.70 570.30 L 330.70 552.20 L 355.00 590.00 L 362.00 586.80 L 369.30 584.00 L 400.80 599.60 L 431.90 616.00 L 408.70 620.10 L 417.40 634.40 L 413.40 640.40 L 409.90 646.60 L 406.90 653.00 L 404.20 659.60 L 399.90 673.10 L 395.00 694.00 L 389.30 689.70 L 383.40 686.00 L 377.30 682.90 L 372.50 681.00 L 367.60 679.60 L 362.50 678.60 L 357.10 678.00 L 343.80 668.60 L 331.00 657.90 L 325.10 652.10 L 319.40 646.00 L 314.00 639.60 L 309.10 633.00 L 304.60 626.10 L 300.50 618.90 L 297.00 611.50 L 294.00 603.80 Z M 389.50 604.90 L 386.90 606.10 L 384.20 607.70 L 381.70 609.70 L 378.30 613.80 L 376.70 617.50 L 376.40 619.40 L 376.60 621.30 L 377.10 623.30 L 378.50 623.70 L 380.10 623.70 L 382.00 623.20 L 384.70 621.90 L 387.50 620.00 L 390.10 617.70 L 392.30 615.10 L 394.10 612.40 L 395.10 610.00 L 395.40 608.40 L 395.20 607.20 L 394.60 606.20 L 393.70 605.40 L 392.10 605.00 L 389.50 604.90 Z" fill="#44517b" fill-rule="nonzero" node-id="101" stroke="none" target-height="141.79999" target-width="137.9" target-x="294" target-y="552.2"></path><path d="M 713.50 551.40 L 722.20 555.70 L 728.00 559.70 L 730.10 562.00 L 731.20 563.70 L 731.90 565.40 L 732.10 567.30 L 731.80 569.10 L 730.90 571.20 L 729.30 573.50 L 727.40 575.40 L 725.50 576.90 L 723.60 577.90 L 721.50 578.50 L 717.50 578.70 L 713.80 577.50 L 710.90 575.00 L 709.90 573.40 L 709.20 571.40 L 709.00 569.30 L 709.10 567.00 L 709.80 564.20 L 727.80 573.40 L 713.50 551.40 Z" fill="#44517b" fill-rule="nonzero" node-id="103" stroke="none" target-height="27.299988" target-width="23.099976" target-x="709" target-y="551.4"></path><path d="M 790.80 555.10 L 793.20 555.10 L 795.20 555.70 L 796.70 556.60 L 797.90 558.00 L 798.80 559.70 L 799.30 561.70 L 799.50 565.90 L 798.40 570.20 L 797.60 572.20 L 795.00 575.40 L 793.50 576.40 L 791.70 577.10 L 789.90 577.20 L 787.80 576.80 L 785.40 575.60 L 786.00 572.20 L 790.20 558.60 L 790.80 555.10 Z" fill="#44517b" fill-rule="nonzero" node-id="105" stroke="none" target-height="22.100037" target-width="14.099976" target-x="785.4" target-y="555.1"></path><path d="M 810.50 573.70 L 813.70 572.50 L 817.30 571.70 L 821.00 571.40 L 824.70 571.70 L 827.10 572.10 L 831.50 573.80 L 831.60 575.80 L 831.30 577.40 L 830.50 578.70 L 828.10 580.90 L 823.80 582.30 L 820.90 582.50 L 818.00 582.20 L 813.70 580.70 L 811.30 578.50 L 810.60 577.20 L 810.30 575.60 L 810.50 573.70 Z" fill="#44517b" fill-rule="nonzero" node-id="107" stroke="none" target-height="11.099976" target-width="21.299988" target-x="810.3" target-y="571.4"></path><path d="M 477.90 643.90 L 481.00 643.50 L 483.20 643.60 L 484.80 644.00 L 485.90 644.90 L 486.60 646.00 L 487.00 647.60 L 487.00 649.80 L 486.40 652.80 L 483.20 653.30 L 481.00 653.20 L 479.40 652.70 L 478.30 651.90 L 477.60 650.70 L 477.20 649.10 L 477.30 646.90 L 477.90 643.90 Z" fill="#44517b" fill-rule="nonzero" node-id="111" stroke="none" target-height="9.799988" target-width="9.799988" target-x="477.2" target-y="643.5"></path><path d="M 333.50 679.80 L 337.30 683.40 L 340.70 687.10 L 343.80 691.10 L 347.80 697.50 L 361.80 724.90 L 365.70 731.40 L 377.50 749.70 L 390.10 767.40 L 394.60 773.10 L 404.20 783.90 L 409.40 788.90 L 414.90 793.60 L 425.30 801.30 L 429.30 804.90 L 432.70 808.90 L 435.80 813.10 L 441.10 822.40 L 451.10 844.70 L 454.70 852.00 L 457.50 856.60 L 460.60 861.10 L 464.10 865.20 L 445.90 865.30 L 427.80 864.70 L 391.70 862.40 L 389.40 865.00 L 387.10 866.90 L 384.80 868.30 L 382.50 869.30 L 379.30 870.10 L 375.90 870.30 L 372.40 869.90 L 365.50 868.00 L 361.90 866.50 L 346.30 858.90 L 341.50 856.90 L 334.10 855.50 L 304.30 851.70 L 292.20 849.00 L 282.80 845.30 L 301.60 830.10 L 307.60 824.70 L 314.80 816.90 L 321.00 808.20 L 323.50 803.50 L 328.20 792.80 L 330.20 787.10 L 333.00 775.50 L 334.30 767.70 L 335.00 759.80 L 335.40 751.90 L 335.30 739.90 L 333.50 703.70 L 333.20 691.70 L 333.50 679.80 Z M 353.90 735.50 L 354.20 744.00 L 355.10 752.60 L 356.40 761.30 L 358.30 769.90 L 360.80 778.30 L 363.70 786.60 L 369.30 798.40 L 376.00 809.50 L 379.90 814.70 L 384.20 819.60 L 388.70 824.30 L 393.70 828.60 L 388.40 818.60 L 378.80 798.20 L 365.90 767.00 L 353.90 735.50 Z" fill="#44517b" fill-rule="nonzero" node-id="113" stroke="none" target-height="190.5" target-width="181.30002" target-x="282.8" target-y="679.8"></path><path d="M 352.00 140.30 L 356.80 137.50 L 366.80 133.20 L 378.90 129.80 L 386.00 128.50 L 393.20 127.60 L 404.00 126.90 L 415.00 126.70 L 443.40 127.40 L 449.80 128.10 L 456.20 129.20 L 462.50 130.70 L 470.80 133.20 L 479.00 136.00 L 487.00 139.40 L 498.90 144.90 L 510.50 150.70 L 491.30 144.30 L 471.40 139.20 L 461.40 137.30 L 451.30 135.80 L 441.10 134.80 L 431.00 134.40 L 420.90 134.60 L 413.30 135.10 L 398.40 137.30 L 391.00 139.00 L 383.70 141.00 L 376.50 143.60 L 369.40 146.60 L 355.10 153.80 L 348.10 157.90 L 341.50 162.20 L 335.20 166.90 L 329.20 171.90 L 317.90 182.70 L 312.70 188.60 L 306.00 196.60 L 299.70 205.10 L 293.80 213.80 L 288.20 222.80 L 277.80 241.30 L 263.90 269.70 L 274.80 239.70 L 283.30 219.80 L 288.00 210.00 L 293.10 200.50 L 298.60 191.30 L 304.50 182.50 L 309.30 176.10 L 314.40 170.00 L 319.80 164.20 L 325.50 158.70 L 331.50 153.50 L 337.90 148.80 L 344.70 144.30 L 352.00 140.30 Z" fill="#a2b2d2" fill-rule="nonzero" node-id="115" stroke="none" target-height="143.00002" target-width="246.6" target-x="263.9" target-y="126.7"></path><path d="M 719.30 207.00 L 729.80 204.20 L 735.30 203.30 L 740.90 202.80 L 748.30 202.80 L 755.70 203.30 L 763.10 204.50 L 773.90 207.40 L 784.10 211.80 L 788.90 214.50 L 793.40 217.60 L 797.70 221.00 L 801.70 224.80 L 805.30 228.80 L 808.50 233.30 L 811.40 238.10 L 813.80 243.20 L 816.20 250.20 L 818.10 257.20 L 819.70 264.40 L 820.80 271.70 L 821.40 279.10 L 821.70 286.40 L 821.50 293.80 L 820.90 301.20 L 819.90 308.50 L 818.40 315.70 L 816.60 322.80 L 814.20 329.80 L 811.50 336.70 L 808.30 343.30 L 804.70 349.60 L 800.70 355.80 L 798.10 359.20 L 795.10 362.10 L 792.00 364.50 L 786.80 367.70 L 781.20 370.40 L 764.00 377.70 L 758.60 380.50 L 756.60 385.10 L 753.50 394.70 L 747.10 424.30 L 732.70 425.20 L 725.00 414.90 L 712.50 418.60 L 708.30 419.50 L 702.60 419.60 L 699.70 419.10 L 699.90 411.10 L 702.80 379.10 L 703.00 371.00 L 699.30 366.80 L 686.70 355.30 L 682.70 351.30 L 679.30 346.90 L 677.40 343.80 L 675.90 340.40 L 673.20 329.90 L 671.00 316.20 L 670.50 309.30 L 670.40 300.10 L 670.80 290.90 L 671.80 281.70 L 673.40 272.50 L 675.40 263.60 L 677.90 254.70 L 681.70 244.50 L 686.70 234.70 L 689.70 230.20 L 693.00 225.80 L 696.60 221.70 L 700.60 218.00 L 704.80 214.60 L 709.30 211.60 L 714.10 209.00 L 719.30 207.00 Z M 694.80 316.50 L 692.40 318.30 L 690.30 320.60 L 688.70 323.20 L 687.40 326.00 L 686.60 329.00 L 686.20 332.00 L 686.30 335.10 L 686.90 338.00 L 688.00 340.70 L 690.60 344.20 L 694.60 346.90 L 698.90 349.10 L 703.70 350.90 L 708.60 352.30 L 713.60 353.00 L 717.00 353.10 L 723.40 352.20 L 726.50 351.20 L 729.40 349.60 L 732.20 347.50 L 733.60 343.90 L 734.20 340.30 L 734.30 336.90 L 733.80 333.50 L 732.80 330.30 L 731.30 327.20 L 729.30 324.30 L 727.10 321.70 L 724.50 319.30 L 721.60 317.20 L 718.50 315.50 L 715.30 314.20 L 711.90 313.30 L 708.40 312.90 L 704.90 312.90 L 701.50 313.50 L 698.10 314.70 L 694.80 316.50 Z M 750.90 327.10 L 746.40 330.70 L 744.50 333.00 L 742.80 335.50 L 740.50 340.90 L 740.00 343.70 L 740.00 346.40 L 740.50 349.10 L 742.40 352.80 L 743.90 354.50 L 748.80 358.00 L 752.10 359.50 L 755.80 360.70 L 763.60 362.00 L 767.70 362.10 L 771.70 361.70 L 775.50 360.90 L 781.60 358.60 L 783.80 357.10 L 787.60 353.40 L 788.90 351.20 L 790.00 348.70 L 790.60 345.90 L 790.90 342.60 L 790.30 338.90 L 789.20 335.70 L 787.60 332.80 L 785.50 330.20 L 783.00 328.10 L 780.20 326.20 L 777.20 324.80 L 774.00 323.70 L 770.60 323.00 L 767.10 322.70 L 760.20 323.30 L 756.90 324.20 L 753.80 325.40 L 750.90 327.10 Z" fill="#a2b2d2" fill-rule="nonzero" node-id="117" stroke="none" target-height="222.40001" target-width="151.29999" target-x="670.4" target-y="202.8"></path><path d="M 306.10 289.20 L 311.50 282.00 L 321.70 270.20 L 330.80 261.90 L 335.80 258.40 L 341.00 255.40 L 346.40 252.90 L 350.70 251.60 L 355.10 250.70 L 359.70 250.30 L 364.60 250.30 L 373.00 251.10 L 381.30 252.30 L 389.40 254.10 L 397.40 256.40 L 405.30 259.10 L 413.00 262.30 L 420.50 265.90 L 427.80 269.90 L 435.00 274.30 L 441.90 279.00 L 448.60 284.10 L 455.00 289.50 L 467.10 301.10 L 478.10 313.70 L 473.60 311.10 L 469.00 308.90 L 464.40 307.20 L 459.70 305.80 L 454.90 304.90 L 450.00 304.50 L 445.00 304.70 L 439.80 305.40 L 422.80 294.60 L 416.80 291.20 L 404.50 285.50 L 398.20 283.30 L 391.70 281.60 L 385.20 280.50 L 380.30 280.10 L 375.30 280.20 L 370.30 280.70 L 365.20 281.70 L 360.30 284.00 L 355.90 286.60 L 351.70 289.50 L 347.90 292.60 L 343.10 297.30 L 338.80 302.30 L 335.00 307.80 L 331.50 313.50 L 328.40 319.50 L 325.60 325.80 L 322.10 335.50 L 319.10 345.40 L 314.50 365.00 L 311.00 366.90 L 308.00 369.00 L 305.40 371.30 L 303.30 373.80 L 300.80 377.50 L 298.90 381.50 L 297.50 385.70 L 296.50 390.10 L 296.00 394.60 L 295.90 399.30 L 296.70 408.70 L 299.20 420.30 L 301.30 426.80 L 302.90 431.10 L 305.00 435.00 L 307.50 438.70 L 311.80 443.80 L 326.30 458.10 L 335.50 468.50 L 344.20 479.30 L 361.10 501.40 L 353.80 498.80 L 346.90 495.70 L 340.40 492.30 L 334.20 488.40 L 328.30 484.10 L 322.80 479.40 L 317.60 474.40 L 312.70 469.00 L 308.10 463.40 L 303.90 457.50 L 299.90 451.30 L 296.30 444.90 L 291.90 436.00 L 288.10 426.90 L 284.90 417.50 L 282.20 407.90 L 280.00 398.20 L 278.30 388.40 L 277.10 378.50 L 276.50 368.80 L 276.20 354.10 L 276.50 349.20 L 277.10 344.50 L 278.20 339.80 L 280.10 333.80 L 282.40 327.80 L 285.20 322.00 L 290.00 313.50 L 295.30 305.30 L 306.10 289.20 Z" fill="#a2b2d2" fill-rule="nonzero" node-id="119" stroke="none" target-height="251.09999" target-width="201.9" target-x="276.2" target-y="250.3"></path><path d="M 482.10 319.90 L 488.10 328.90 L 493.60 338.20 L 498.80 347.80 L 503.50 357.70 L 507.60 367.70 L 511.30 378.00 L 515.50 393.70 L 518.30 409.70 L 519.10 417.80 L 519.40 425.90 L 519.30 434.10 L 518.70 442.30 L 516.90 451.10 L 513.80 459.20 L 511.10 464.30 L 507.90 469.10 L 504.10 473.60 L 500.10 477.70 L 495.60 481.50 L 490.90 484.90 L 485.80 488.00 L 480.60 490.60 L 475.20 492.90 L 479.10 486.00 L 482.50 478.90 L 484.50 474.00 L 487.50 464.10 L 488.50 459.00 L 489.00 453.90 L 489.10 448.80 L 488.70 443.60 L 487.70 438.50 L 486.20 433.20 L 489.60 427.90 L 492.50 422.60 L 494.90 417.20 L 496.70 411.70 L 498.20 406.00 L 499.20 400.30 L 499.80 394.50 L 500.00 388.60 L 499.80 380.80 L 499.00 372.90 L 497.70 365.00 L 495.90 357.20 L 491.10 341.80 L 486.80 330.50 L 482.10 319.90 Z" fill="#a2b2d2" fill-rule="nonzero" node-id="121" stroke="none" target-height="173" target-width="44.200012" target-x="475.2" target-y="319.9"></path><path d="M 773.90 490.40 L 780.70 486.70 L 784.40 485.40 L 795.80 482.40 L 805.30 492.30 L 807.80 493.40 L 810.20 493.90 L 812.50 493.90 L 817.10 492.60 L 819.30 491.50 L 832.00 483.00 L 830.50 496.10 L 828.10 509.00 L 825.40 517.40 L 823.60 521.40 L 829.80 494.00 L 804.80 495.50 L 805.20 500.80 L 804.90 506.00 L 804.20 511.00 L 802.80 515.90 L 801.00 520.70 L 798.60 525.20 L 795.80 529.40 L 792.50 533.40 L 788.70 537.10 L 796.00 524.80 L 800.30 516.10 L 801.60 511.80 L 802.20 508.80 L 802.30 505.80 L 802.00 502.90 L 801.20 500.00 L 799.90 497.00 L 797.90 493.90 L 789.00 485.80 L 773.90 490.40 Z" fill="#a2b2d2" fill-rule="nonzero" node-id="123" stroke="none" target-height="54.69998" target-width="58.099976" target-x="773.9" target-y="482.4"></path><path d="M 823.50 550.60 L 825.20 550.90 L 827.30 552.20 L 828.30 554.40 L 828.40 555.70 L 828.10 557.80 L 827.40 559.90 L 826.30 561.80 L 824.90 563.50 L 822.60 564.90 L 821.30 565.20 L 818.50 564.30 L 817.00 562.50 L 816.50 560.00 L 816.80 558.00 L 817.50 555.90 L 818.60 554.00 L 820.00 552.40 L 821.70 551.20 L 823.50 550.60 Z" fill="#a2b2d2" fill-rule="nonzero" node-id="125" stroke="none" target-height="14.600037" target-width="11.900024" target-x="816.5" target-y="550.6"></path><path d="M 670.60 725.80 L 668.90 718.00 L 666.80 704.10 L 666.50 693.00 L 667.00 687.60 L 668.10 682.30 L 669.70 677.20 L 671.40 673.60 L 673.40 670.10 L 675.90 666.80 L 678.90 663.60 L 696.40 662.40 L 708.20 662.20 L 714.00 662.80 L 717.80 663.50 L 725.30 666.00 L 728.70 668.40 L 731.50 671.20 L 733.80 674.30 L 735.70 677.70 L 737.30 681.30 L 738.50 685.10 L 739.70 691.10 L 740.40 697.20 L 741.10 709.10 L 719.30 710.00 L 717.00 730.40 L 724.10 731.80 L 729.80 734.40 L 733.10 736.80 L 735.90 739.60 L 738.20 742.80 L 740.00 746.40 L 741.40 750.20 L 742.40 754.30 L 742.80 758.60 L 742.80 762.90 L 742.40 767.50 L 729.40 762.50 L 707.50 771.30 L 706.60 767.60 L 705.40 764.40 L 703.70 761.60 L 699.40 756.60 L 692.90 751.40 L 680.50 742.70 L 675.90 738.10 L 674.00 735.50 L 672.50 732.70 L 671.30 729.50 L 670.60 725.80 Z M 680.10 731.50 L 680.80 734.20 L 681.90 736.20 L 683.20 737.60 L 686.60 739.40 L 688.70 739.80 L 691.90 739.80 L 695.50 739.40 L 708.70 736.20 L 703.80 713.60 L 700.30 713.20 L 696.40 713.10 L 692.40 713.60 L 686.30 715.40 L 682.40 717.90 L 680.80 719.60 L 679.70 721.40 L 679.00 723.60 L 678.80 725.80 L 679.10 728.40 L 680.10 731.50 Z" fill="#a2b2d2" fill-rule="nonzero" node-id="127" stroke="none" target-height="109.099976" target-width="76.29999" target-x="666.5" target-y="662.2"></path><path d="M 183.00 829.30 L 198.40 824.40 L 214.00 820.00 L 229.80 816.10 L 245.60 812.60 L 261.60 809.70 L 277.70 807.30 L 293.80 805.60 L 310.00 804.50 L 306.80 809.00 L 303.40 813.20 L 299.70 817.20 L 293.60 822.60 L 287.30 827.80 L 260.80 847.20 L 266.70 851.20 L 279.00 858.30 L 285.50 861.30 L 292.10 863.80 L 298.90 865.90 L 305.80 867.40 L 312.80 868.20 L 325.00 868.60 L 334.80 869.80 L 342.00 871.50 L 370.50 879.80 L 377.70 881.20 L 382.60 881.80 L 387.50 882.00 L 406.50 881.30 L 448.20 879.20 L 462.10 878.90 L 476.00 879.30 L 494.00 886.10 L 503.20 889.00 L 512.50 891.50 L 521.90 893.70 L 531.30 895.40 L 540.80 896.60 L 550.40 897.40 L 560.00 897.70 L 569.60 897.40 L 579.10 896.50 L 588.70 895.00 L 590.70 889.00 L 595.40 870.80 L 607.90 870.60 L 658.30 868.80 L 670.90 868.60 L 674.30 868.90 L 681.10 870.30 L 686.00 871.80 L 705.50 879.40 L 710.50 880.60 L 717.40 881.40 L 731.50 880.70 L 742.00 879.70 L 752.40 878.30 L 762.70 876.50 L 773.00 874.20 L 783.20 871.40 L 793.20 868.20 L 803.00 864.50 L 812.70 860.30 L 822.10 855.70 L 831.30 850.60 L 840.30 845.10 L 819.10 844.70 L 831.10 826.10 L 849.40 832.90 L 859.30 837.40 L 866.60 842.20 L 867.90 843.80 L 869.50 847.40 L 870.00 850.30 L 869.90 853.20 L 869.40 855.10 L 867.70 858.60 L 866.50 860.10 L 865.00 861.40 L 855.80 866.90 L 848.20 870.70 L 840.40 874.10 L 824.30 879.50 L 816.00 881.80 L 803.50 884.70 L 765.80 892.50 L 741.00 896.60 L 716.10 900.20 L 691.10 903.20 L 666.10 905.60 L 641.00 907.60 L 615.90 909.20 L 565.60 911.20 L 502.70 912.00 L 465.00 911.80 L 432.10 910.70 L 377.20 908.10 L 333.40 904.70 L 311.60 902.40 L 289.80 899.60 L 268.10 896.30 L 235.80 890.20 L 219.70 886.60 L 203.70 882.60 L 185.90 877.10 L 180.10 875.00 L 168.80 869.90 L 163.50 866.80 L 158.50 863.30 L 153.70 859.20 L 153.10 855.50 L 153.10 852.30 L 153.60 849.50 L 154.70 846.90 L 156.20 844.50 L 158.20 842.30 L 161.60 839.50 L 165.70 837.00 L 170.00 834.80 L 183.00 829.30 Z" fill="#a2b2d2" fill-rule="nonzero" node-id="129" stroke="none" target-height="107.5" target-width="716.9" target-x="153.1" target-y="804.5"></path></svg>